<?xml version="1.0" encoding="UTF-8" standalone="no"?>
<svg 
    role="img" 
    xmlns="http://www.w3.org/2000/svg" 
    width="1000mm"
    height="1000mm"
    viewBox="0 0 1000 1000"
    style="max-width:1.6em; height: auto;">
    
    <path 
        id="path" 
        style="opacity:1;vector-effect:none;fill:#000000;fill-opacity:1;"
        d=" M 636 415C 617 415 601 431 601 450C 601 469 617 484 636 484C 655 484 670 469 670 450C 670 431 655 415 636 415C 636 415 636 415 636 415M 361 415C 341 415 326 430 326 449C 326 468 341 484 361 484C 380 484 395 468 395 449C 395 430 380 415 361 415C 361 415 361 415 361 415M 500 246C 445 246 402 290 402 344C 402 344 402 382 402 382C 402 382 600 382 600 382C 600 382 600 343 600 343C 600 289 555 245 500 246C 500 246 500 246 500 246M 500 171C 595 170 675 247 675 343C 675 343 675 382 675 382C 675 382 700 382 700 382C 755 382 795 428 800 480C 800 480 825 727 825 727C 830 785 780 829 725 829C 725 829 275 829 275 829C 220 829 169 785 175 727C 175 727 200 480 200 480C 205 428 245 382 300 382C 300 382 327 382 327 382C 327 382 327 344 327 344C 327 344 327 344 327 344C 327 249 405 171 500 171C 500 171 500 171 500 171"
        transform="">
    </path>    
</svg>