<?xml version="1.0" encoding="UTF-8" standalone="no"?>
<svg 
    role="img" 
    xmlns="http://www.w3.org/2000/svg" 
   <svg viewBox=" 0 12 20"
    viewBox="0 0 1000 1000"
    style="max-width:1.6em; height: auto;">
    
    <path 
        id="path" 
        style="opacity:1;vector-effect:none;fill:#000000;fill-opacity:1;"
        d=" M 500 75C 514 75 528 82 540 94C 540 94 950 504 950 504C 960 514 960 519 950 529C 950 529 915 564 915 564C 905 574 895 574 885 564C 885 564 515 194 515 194C 505 184 495 184 485 194C 485 194 115 564 115 564C 105 574 95 574 85 564C 85 564 50 529 50 529C 40 519 40 514 50 504C 50 504 135 419 135 419C 145 409 150 399 150 389C 150 389 150 267 150 267C 150 267 150 154 150 154C 150 139 160 129 175 129C 175 129 300 129 300 129C 315 129 326 139 325 154C 325 154 325 229 325 229C 325 229 460 94 460 94C 472 82 486 75 500 75C 500 75 500 75 500 75M 500 236C 505 236 510 239 515 244C 515 244 835 564 835 564C 845 574 850 579 850 594C 850 594 850 879 850 879C 850 914 835 929 800 929C 800 929 600 929 600 929C 590 929 575 914 575 904C 575 904 575 754 575 754C 575 739 565 729 550 729C 550 729 450 729 450 729C 435 729 425 739 425 754C 425 754 425 904 425 904C 425 914 410 929 400 929C 400 929 200 929 200 929C 165 929 150 914 150 879C 150 879 150 594 150 594C 150 579 155 574 165 564C 165 564 485 244 485 244C 490 239 495 236 500 236C 500 236 500 236 500 236"
        transform="">
    </path>    
</svg>