<?xml version="1.0" encoding="UTF-8" standalone="no"?>
<svg 
    role="img" 
    xmlns="http://www.w3.org/2000/svg" 
    width="1000mm"
    height="1000mm"
    viewBox="0 0 4000 4000"
    style="max-width:1.6em; height: auto;">
    
    <path 
        id="path" 
        style="opacity:1;vector-effect:none;fill:#000000;fill-opacity:1;"
        d=" M 428 168C 428 202 411 232 386 250C 386 250 446 378 446 378C 455 376 465 375 475 375C 544 375 600 431 600 500C 600 509 599 518 597 527C 597 527 705 574 705 574C 723 547 754 528 790 528C 844 528 890 573 890 628C 890 683 844 728 790 728C 735 728 690 683 690 628C 690 626 690 624 690 622C 690 622 577 572 577 572C 554 604 517 625 475 625C 406 625 350 569 350 500C 350 459 370 423 401 400C 401 400 339 268 339 268C 335 268 331 268 328 268C 273 268 228 223 228 168C 228 114 273 68 328 68C 383 68 428 114 428 168C 428 168 428 168 428 168M 925 240C 925 295 880 340 825 340C 770 340 725 295 725 240C 725 186 770 140 825 140C 880 140 925 186 925 240C 925 240 925 240 925 240M 717 322C 720 332 717 344 709 351C 709 351 639 408 639 408C 628 417 612 415 603 405C 594 394 596 378 607 369C 607 369 677 312 677 312C 681 308 687 306 692 306C 693 306 693 306 693 306C 704 306 713 313 717 322C 717 322 717 322 717 322M 400 500C 400 542 433 575 475 575C 517 575 550 542 550 500C 550 458 517 425 475 425C 433 425 400 458 400 500C 400 500 400 500 400 500M 373 626C 377 635 375 646 368 653C 368 653 313 709 313 709C 303 719 287 719 277 709C 267 699 267 683 277 673C 277 673 332 618 332 618C 337 613 343 611 350 611C 350 611 350 611 351 611C 361 611 370 617 373 626C 373 626 373 626 373 626M 275 800C 275 855 230 900 175 900C 120 900 75 855 75 800C 75 745 120 700 175 700C 230 700 275 745 275 800C 275 800 275 800 275 800"
        transform="">
    </path>    
</svg>