<?xml version="1.0" encoding="UTF-8" standalone="no"?>
<svg 
    role="img" 
    xmlns="http://www.w3.org/2000/svg" 
    width="1000mm"
    height="1000mm"
    viewBox="0 0 1000 1000"
    style="max-width:1.6em; height: auto;">
    
    <path 
        id="path" 
        style="opacity:1;vector-effect:none;fill:#000000;fill-opacity:1;"
        d=" M 624 333C 635 333 646 338 653 347C 726 433 728 558 659 646C 651 657 637 663 624 661C 611 659 599 650 594 637C 589 625 591 611 600 600C 647 539 646 454 596 395C 586 384 584 369 590 355C 596 342 609 334 624 333C 624 333 624 333 624 333M 719 253C 731 253 742 258 749 267C 859 398 863 588 757 723C 749 734 736 739 722 738C 709 736 698 727 693 714C 688 702 690 688 698 677C 782 570 779 419 692 315C 682 304 680 288 686 275C 692 262 705 253 719 253C 719 253 719 253 719 253M 815 172C 827 172 837 177 845 186C 993 362 998 619 856 800C 848 811 834 816 821 815C 808 813 796 804 791 791C 786 779 788 765 797 754C 917 600 913 384 787 234C 778 223 775 208 781 195C 787 181 801 173 815 172C 815 172 815 172 815 172M 491 162C 498 162 505 164 511 167C 529 175 541 193 541 212C 541 212 541 788 541 788C 541 807 529 825 511 833C 493 841 472 838 457 825C 457 825 305 688 305 688C 296 680 284 675 272 675C 272 675 91 675 91 675C 78 675 65 670 56 660C 46 651 41 638 41 625C 41 625 41 375 41 375C 41 362 46 349 56 340C 65 330 78 325 91 325C 91 325 272 325 272 325C 284 325 296 320 305 312C 305 312 457 175 457 175C 467 167 479 162 491 162C 491 162 491 162 491 162"
        transform="">
    </path>    
</svg>