<?xml version="1.0" encoding="UTF-8" standalone="no"?>
<svg 
    role="img" 
    xmlns="http://www.w3.org/2000/svg" 
    width="1000mm"
    height="1000mm"
    viewBox="0 0 1000 1000"
    style="max-width:1.6em; height: auto;">
    
    <path 
        id="path" 
        style="opacity:1;vector-effect:none;fill:#000000;fill-opacity:1;"
        d=" M 500 328C 500 328 500 328 500 328C 405 328 328 405 328 500C 328 595 405 672 500 672C 595 672 672 595 672 500C 672 405 595 328 500 328M 463 101C 463 101 463 101 463 101C 463 101 534 101 534 101C 558 101 578 118 582 142C 582 142 592 198 592 198C 611 203 630 211 648 221C 648 221 694 188 694 188C 713 174 739 177 758 193C 758 193 807 243 807 243C 825 260 827 287 813 306C 813 306 780 352 780 352C 789 370 796 388 802 407C 802 407 858 416 858 416C 882 420 899 441 899 465C 899 465 899 535 899 535C 899 559 882 580 858 584C 858 584 802 593 802 593C 796 612 789 630 779 648C 779 648 812 694 812 694C 826 714 824 740 807 757C 807 757 757 807 757 807C 741 822 714 826 694 812C 694 812 648 779 648 779C 630 789 612 796 593 802C 593 802 584 858 584 858C 580 882 559 899 535 899C 535 899 465 899 465 899C 441 899 420 882 416 858C 416 858 407 802 407 802C 389 796 371 789 354 780C 354 780 307 814 307 814C 288 827 263 825 244 808C 244 808 194 759 194 759C 177 742 175 715 189 695C 189 695 222 649 222 649C 212 632 205 614 199 595C 199 595 142 586 142 586C 118 582 101 561 101 537C 101 537 101 467 101 467C 101 442 118 422 142 418C 142 418 197 409 197 409C 203 390 210 372 220 354C 220 354 186 307 186 307C 172 288 175 261 192 244C 192 244 241 194 241 194C 257 179 285 175 305 189C 305 189 351 222 351 222C 368 212 386 205 405 199C 405 199 415 142 415 142C 419 118 439 101 463 101"
        transform="">
    </path>    
</svg>