<?xml version="1.0" encoding="UTF-8" standalone="no"?>
<svg 
    role="img" 
    xmlns="http://www.w3.org/2000/svg" 
    width="1000mm"
    height="1000mm"
    viewBox="0 0 1000 1000"
    style="max-width:1.6em; height: auto;">
    
    <path 
        id="path" 
        style="opacity:1;vector-effect:none;fill:#000000;fill-opacity:1;"
        d=" M 688 159C 729 207 750 269 750 325C 750 382 726 424 702 457C 678 489 655 514 649 533C 630 588 625 602 625 650C 625 664 614 675 600 675C 600 675 400 675 400 675C 386 675 375 664 375 650C 375 604 365 573 351 533C 342 504 319 482 296 451C 273 421 250 381 250 325C 250 269 271 207 312 159C 354 110 418 75 500 75C 582 75 646 110 688 159C 688 159 688 159 688 159M 350 191C 317 230 300 281 300 325C 300 369 315 394 336 421C 356 448 384 475 399 517C 410 551 421 584 424 625C 424 625 576 625 576 625C 578 588 586 563 601 517C 614 481 641 456 662 427C 683 398 700 368 700 325C 700 281 683 230 650 191C 616 152 568 125 500 125C 432 125 384 152 350 191C 350 191 350 191 350 191M 475 194C 477 206 472 217 461 222C 415 245 399 263 390 329C 388 342 375 352 361 350C 348 348 338 335 340 321C 351 247 385 205 439 178C 442 176 446 175 450 175C 462 175 472 183 475 194C 475 194 475 194 475 194M 575 710C 589 710 600 721 600 735C 600 749 589 760 575 760C 575 760 425 760 425 760C 411 760 400 749 400 735C 400 721 411 710 425 710C 425 710 575 710 575 710M 575 795C 589 795 600 806 600 820C 600 834 589 845 575 845C 575 845 425 845 425 845C 411 845 400 834 400 820C 400 806 411 795 425 795C 425 795 575 795 575 795M 525 880C 539 880 550 891 550 905C 550 919 539 930 525 930C 507 930 491 930 475 930C 461 930 450 919 450 905C 450 891 461 880 475 880C 491 880 507 880 525 880C 525 880 525 880 525 880"
        transform="">
    </path>    
</svg>