<?xml version="1.0" encoding="UTF-8" standalone="no"?>
<svg 
    role="img" 
    xmlns="http://www.w3.org/2000/svg" 
    width="1000mm"
    height="1000mm"
    viewBox="0 0 1000 1000"
    style="max-width:1.6em; height: auto;">
    
    <path 
        id="path" 
        style="opacity:1;vector-effect:none;fill:#000000;fill-opacity:1;"
        d=" M 850 188C 884 188 912 216 912 250C 912 417 912 583 912 750C 912 784 884 812 850 812C 617 812 383 812 150 812C 116 812 88 784 88 750C 88 583 88 417 88 250C 88 216 116 188 150 188C 383 188 617 188 850 188ZM 113 250C 113 398 113 547 113 695C 172 635 232 576 291 516C 294 514 297 513 300 512C 303 513 306 514 309 516C 354 562 400 607 446 653C 527 566 609 479 691 391C 693 389 696 388 700 388C 703 387 706 389 709 391C 768 451 828 510 887 570C 887 463 887 357 887 250C 887 229 871 213 850 213C 617 213 383 213 150 213C 129 213 113 229 113 250ZM 337 375C 337 409 309 437 275 437C 241 437 213 409 213 375C 213 341 241 312 275 312C 309 312 337 341 337 375ZM 238 375C 238 396 254 412 275 412C 296 412 312 396 312 375C 312 354 296 337 275 337C 254 337 238 354 238 375ZM 354 787C 519 787 685 787 850 787C 871 787 887 771 887 750C 887 702 887 653 887 605C 825 543 763 480 700 418C 585 541 469 664 354 787ZM 113 730C 113 737 113 743 113 750C 113 771 129 787 150 787C 207 787 263 787 320 787C 356 749 392 710 429 671C 386 628 343 586 300 543C 238 605 175 668 113 730Z"
        transform="">
    </path>    
</svg>